<svg xmlns="http://www.w3.org/2000/svg" width="18" height="18" viewBox="0 0 18 18" shape-rendering="geometricPrecision">
  <g id="контур" fill="#000000">
    <path fill-rule="evenodd" d="M9 .425a2.725 1.775 0 1 1 0 3.55A2.725 1.775 0 1 1 9 .425Zm0 1.25a1.475.525 0 1 0 0 1.05A1.475.525 0 1 0 9 1.675Z"/>
    <rect x="8.375" y="3.35" width="1.25" height="1.45" rx=".625"/>
    <path fill-rule="evenodd" d="M9 4.075a6.175 6.175 0 1 1 0 12.35A6.175 6.175 0 1 1 9 4.075Zm0 1.25a4.925 4.925 0 1 0 0 9.85A4.925 4.925 0 1 0 9 5.325Z"/>
  </g>
  <g id="точка-в-кольце-и-волна" fill="#000000">
    <path fill-rule="evenodd" d="M9 5.225a1.625 1.625 0 1 1 0 3.25A1.625 1.625 0 1 1 9 5.225Zm0 .85a.775.775 0 1 0 0 1.55A.775.775 0 1 0 9 6.075Z"/>
    <circle cx="9" cy="6.85" r=".43"/>
    <rect x="5.5" y="11" width="1" height="1.5" rx=".5"/>
    <rect x="7" y="10.5" width="1" height="2.5" rx=".5"/>
    <rect x="8.5" y="10" width="1" height="3.5" rx=".5"/>
    <rect x="10" y="10.5" width="1" height="2.5" rx=".5"/>
    <rect x="11.5" y="11" width="1" height="1.5" rx=".5"/>
  </g>
</svg>
